<svg width="234" height="234" viewBox="0 0 234 234" fill="none" xmlns="http://www.w3.org/2000/svg">
<rect width="234" height="234" rx="10" fill="#12FE74"/>
<path fill-rule="evenodd" clip-rule="evenodd" d="M150.085 56.1535C140.388 51.0201 133.028 42.0027 130.122 31.1656C129.225 34.4792 128.764 37.9558 128.764 41.541C128.764 44.3386 129.062 47.0546 129.606 49.6892C129.606 49.6892 129.606 49.6892 129.606 49.7164C129.606 49.7435 129.633 49.7979 129.633 49.825C130.366 53.3559 131.561 56.6967 133.164 59.793C129.741 57.2671 126.699 54.2522 124.146 50.8571C120.724 77.3932 130.366 105.016 147.993 123.213C170.999 149.994 149.786 195.434 113.934 194.239C63.1976 194.673 54.5062 119.954 103.178 108.221L103.151 108.085C116.134 103.875 122.218 95.4279 123.277 84.455C104.536 99.6378 74.9311 80.8154 81.0694 57.2399C10.723 91.8699 36.8517 204.207 116.596 202.822C151.334 202.822 180.722 179.844 190.364 148.256C201.88 111.426 183.248 72.1783 150.085 56.1535Z" fill="black"/>
</svg>
