<svg width="602" height="140" viewBox="0 0 602 140" fill="none" xmlns="http://www.w3.org/2000/svg">
<path d="M592.036 101.859C586.768 101.859 582.73 100.413 579.92 97.521C577.112 94.6286 575.707 90.5187 575.707 85.1893V66.3904H568.113V61.0882L575.707 59.361V49.1984C580.75 47.7138 585.802 51.4936 585.802 56.7502V85.5505C585.802 88.2817 586.447 90.4779 587.734 92.1382C589.022 93.7985 590.704 94.6286 592.782 94.6286C593.747 94.6286 594.757 94.548 595.81 94.3878C596.893 94.2004 598.196 93.8791 599.717 93.4237L602 99.8502C599.805 100.52 597.947 101.015 596.425 101.337C594.933 101.684 593.47 101.859 592.036 101.859ZM597.128 66.3904C595.547 66.3904 594.216 66.0428 593.133 65.3457C592.05 64.6224 591.158 63.7252 590.456 62.6543C589.783 61.5834 589.256 60.4853 588.875 59.361H601.473V66.3904H597.128Z" fill="black"/>
<path d="M549.797 101.86C546.109 101.86 542.861 101.244 540.052 100.012C537.243 98.7801 534.902 97.1198 533.029 95.0314C531.156 92.9429 529.751 90.5729 528.815 87.9213C527.878 85.2435 527.41 82.458 527.41 79.5666C527.41 75.1751 528.376 71.3992 530.307 68.2389C532.238 65.0795 534.887 62.6551 538.252 60.9686C541.647 59.255 545.494 58.3976 549.797 58.3976C552.957 58.3976 555.796 59.0006 558.312 60.2055C560.829 61.3832 562.877 63.0309 564.457 65.1465C566.038 67.2349 567.003 69.6855 567.355 72.4973C567.735 75.3091 567.34 78.3219 566.169 81.5356H541.237C541.852 79.8219 542.744 78.3753 543.915 77.1975C545.115 76.0188 546.593 75.4305 548.348 75.4305H557.434C557.669 73.6362 557.464 71.9759 556.82 70.4497C556.206 68.9234 555.225 67.7049 553.879 66.7941C552.533 65.8834 550.937 65.4281 549.095 65.4281C547.162 65.4281 545.349 65.9368 543.652 66.9543C541.954 67.9447 540.579 69.4719 539.525 71.5332C538.501 73.5954 537.989 76.2062 537.989 79.3656C537.989 82.4716 538.53 85.163 539.613 87.4398C540.725 89.7156 542.261 91.47 544.222 92.7021C546.183 93.9342 548.436 94.5498 550.982 94.5498C553.001 94.5498 554.962 94.3352 556.864 93.9071C558.795 93.4517 561.019 92.675 563.536 91.5778L566.258 98.2461C563.243 99.585 560.36 100.522 557.61 101.058C554.888 101.592 552.284 101.86 549.797 101.86Z" fill="black"/>
<path d="M511.434 100.895V39.9999C517.277 39.9999 522.013 44.7361 522.013 50.5791V100.895H511.434Z" fill="black"/>
<path d="M492.868 100.895V39.9999C498.71 39.9999 503.446 44.7361 503.446 50.5781V100.895H492.868Z" fill="black"/>
<path d="M461.91 101.859C459.013 101.859 456.512 101.323 454.404 100.253C452.297 99.1544 450.674 97.7087 449.532 95.9144C448.42 94.093 447.864 92.125 447.864 90.0093C447.864 87.5995 448.596 85.4441 450.059 83.542C451.551 81.6138 454.053 80.0205 457.565 78.7622C461.076 77.5039 465.89 76.6194 472.006 76.1116C471.831 77.1291 471.523 78.133 471.084 79.1244C470.645 80.1157 470.002 80.972 469.153 81.6953C468.334 82.3915 467.251 82.8469 465.904 83.0614C464.002 83.3294 462.51 83.7712 461.427 84.3867C460.345 85.0023 459.569 85.7256 459.101 86.5558C458.662 87.3859 458.443 88.2558 458.443 89.1666C458.443 90.6666 459.013 91.9385 460.155 92.9823C461.326 94.027 462.803 94.5493 464.588 94.5493C466.402 94.5493 468.216 94.0542 470.031 93.0629C471.875 92.0453 473.586 90.6394 475.167 88.8452V75.5892C475.167 72.6435 474.318 70.2871 472.62 68.52C470.952 66.7257 468.406 65.8286 464.983 65.8286C463.491 65.8286 461.925 65.9762 460.287 66.2704C458.677 66.5383 456.819 67.0199 454.712 67.7161C453.207 64.0741 455.449 59.973 459.326 59.271C459.545 59.2312 459.761 59.1943 459.979 59.1603C462.525 58.7322 464.807 58.5176 466.827 58.5176C472.825 58.5176 477.449 60.0176 480.697 63.0168C483.975 65.9888 485.613 70.2608 485.613 75.83V89.3666C485.613 91.5094 485.731 93.5444 485.965 95.4717C486.199 97.3728 486.55 99.1806 487.018 100.894H479.161C478.371 100.466 477.727 99.8904 477.229 99.167C476.732 98.4437 476.308 97.667 475.956 96.8368L475.782 95.3105L474.727 96.7164C472.27 98.8321 470.06 100.224 468.1 100.894C466.168 101.538 464.105 101.859 461.91 101.859Z" fill="black"/>
<path d="M379.486 100.895L361.753 42.4907H364.211C369.111 42.4907 373.407 45.7636 374.708 50.4881L384.796 87.118L385.498 91.3754L386.464 87.118L398.711 43.2946H400.685C406.571 43.2946 411.73 47.2287 413.288 52.9038L422.679 87.118L423.556 91.3754L424.258 87.2782L436.549 42.4907C441.774 42.4907 445.517 47.5317 444.006 52.5329L429.394 100.895H417.981L405.296 56.9515L404.55 53.6174L403.848 56.8311L391.162 100.895H379.486Z" fill="black"/>
<path d="M321.198 100.405L283.01 42H289.18C292.968 42 296.472 44.0147 298.376 47.2905L306.932 62.0038L307.766 64.2933L308.468 62.0038L320.144 42H332.215L313.297 70.5596L333.225 100.405H321.198ZM282 100.405L299.426 74.1345C300.157 75.018 300.889 76.1831 301.62 77.6288C302.352 79.0483 302.82 80.561 303.025 82.1679C303.23 83.7747 302.893 85.301 302.015 86.7467L293.72 100.404H282V100.405Z" fill="black"/>
<path d="M250.831 102.019C244.568 102.019 239.125 100.733 234.502 98.162C229.878 95.591 226.294 92.0297 223.748 87.4771C221.202 82.8982 219.929 77.6223 219.929 71.6511C219.929 67.0985 220.705 62.9614 222.256 59.2389C223.806 55.5164 225.972 52.3162 228.752 49.6384C231.532 46.9607 234.795 44.8984 238.541 43.4527C242.316 42.007 246.413 41.2837 250.832 41.2837C256.187 41.2837 260.811 42.141 264.702 43.8547C268.595 45.5684 271.799 47.885 274.315 50.8035C276.832 53.6959 278.69 56.9495 279.89 60.5642C281.119 64.1527 281.734 67.848 281.734 71.6501C281.734 75.8542 281.002 79.7913 279.539 83.4594C278.076 87.1285 275.983 90.3549 273.262 93.1395C270.54 95.9241 267.293 98.1067 263.518 99.6864C259.742 101.242 255.512 102.019 250.831 102.019ZM250.831 94.7085C254.401 94.7085 257.649 93.758 260.576 91.8569C263.502 89.9558 265.828 87.278 267.555 83.8235C269.281 80.3428 270.144 76.2853 270.144 71.6531C270.144 67.1276 269.325 63.1371 267.686 59.6826C266.076 56.2019 263.823 53.4969 260.926 51.5686C258.029 49.6142 254.664 48.6365 250.831 48.6365C246.909 48.6365 243.5 49.6404 240.603 51.6492C237.706 53.658 235.468 56.4028 233.887 59.8836C232.337 63.3653 231.561 67.2878 231.561 71.6531C231.561 74.759 232 77.7048 232.877 80.4904C233.755 83.2487 235.028 85.6984 236.696 87.8412C238.364 89.984 240.384 91.6705 242.754 92.9026C245.154 94.1055 247.846 94.7085 250.831 94.7085Z" fill="black"/>
<path d="M178 100.895V59.8604C178 50.2677 185.777 42.4907 195.37 42.4907H215.53C215.53 48.1366 210.953 52.7144 205.306 52.7144H199.152C193.507 52.7144 188.929 57.2913 188.929 62.9382V100.896H178V100.895ZM192.266 73.8222C192.646 72.7241 193.173 71.626 193.845 70.5288C194.547 69.4045 195.441 68.4802 196.523 67.7569C197.635 67.0335 198.982 66.6724 200.561 66.6724H212.545V73.8222H192.266Z" fill="black"/>
<rect width="140" height="140" rx="70" fill="black"/>
<path fill-rule="evenodd" clip-rule="evenodd" d="M89.7944 33.5961C83.9931 30.5249 79.5893 25.1299 77.8506 18.6461C77.3143 20.6286 77.0381 22.7086 77.0381 24.8536C77.0381 26.5274 77.2168 28.1524 77.5418 29.7286C77.5418 29.7286 77.5418 29.7286 77.5418 29.7449C77.5418 29.7611 77.5581 29.7936 77.5581 29.8099C77.9968 31.9224 78.7118 33.9211 79.6706 35.7736C77.6231 34.2624 75.8031 32.4586 74.2756 30.4274C72.2281 46.3037 77.9968 62.8299 88.5431 73.7174C102.307 89.74 89.6156 116.926 68.1656 116.211C37.8105 116.471 32.6105 71.7674 61.7306 64.7474L61.7143 64.6662C69.4818 62.1474 73.1218 57.0937 73.7556 50.5287C62.5431 59.6124 44.8305 48.3512 48.5031 34.2461C6.4155 54.9649 22.048 122.175 69.7581 121.346C90.5419 121.346 108.124 107.599 113.893 88.7C120.783 66.6649 109.636 43.1836 89.7944 33.5961Z" fill="#12FE74"/>
</svg>
