<svg width="712" height="111" viewBox="0 0 712 111" fill="none" xmlns="http://www.w3.org/2000/svg">
<path d="M695.195 110.645C686.351 110.645 679.57 108.217 674.853 103.361C670.136 98.5045 667.777 91.6037 667.777 82.6553V51.0906H655.027V42.1878L667.777 39.2876V22.2239C676.245 19.7313 684.729 26.0778 684.729 34.9039V83.2617C684.729 87.8476 685.811 91.5352 687.973 94.3229C690.134 97.1106 692.96 98.5045 696.448 98.5045C698.069 98.5045 699.764 98.3692 701.533 98.1002C703.351 97.7855 705.539 97.2459 708.093 96.4813L711.926 107.272C708.24 108.397 705.12 109.228 702.565 109.768C700.059 110.351 697.603 110.645 695.195 110.645ZM703.745 51.0906C701.091 51.0906 698.856 50.5069 697.037 49.3364C695.219 48.1219 693.721 46.6156 692.542 44.8174C691.413 43.0192 690.527 41.1754 689.888 39.2876H711.041V51.0906H703.745Z" fill="black"/>
<path d="M624.272 110.646C618.081 110.646 612.628 109.613 607.911 107.544C603.193 105.475 599.263 102.687 596.118 99.1808C592.973 95.6741 590.615 91.6947 589.043 87.2425C587.47 82.7463 586.684 78.0692 586.684 73.2143C586.684 65.8407 588.306 59.5007 591.549 54.1943C594.791 48.8895 599.238 44.8188 604.889 41.987C610.588 39.1097 617.049 37.6702 624.272 37.6702C629.579 37.6702 634.346 38.6825 638.571 40.7057C642.797 42.6832 646.235 45.4497 648.889 49.002C651.543 52.5086 653.164 56.6233 653.754 61.3445C654.393 66.0657 653.729 71.1243 651.763 76.5204H609.9C610.932 73.6431 612.43 71.214 614.396 69.2365C616.411 67.2574 618.893 66.2695 621.84 66.2695H637.096C637.49 63.2568 637.146 60.4691 636.066 57.9063C635.034 55.3436 633.387 53.2977 631.128 51.7685C628.866 50.2393 626.188 49.4747 623.094 49.4747C619.85 49.4747 616.804 50.329 613.955 52.0375C611.105 53.7003 608.795 56.2647 607.026 59.7257C605.306 63.1883 604.447 67.572 604.447 72.8768C604.447 78.092 605.355 82.611 607.173 86.4339C609.041 90.2552 611.62 93.2011 614.912 95.2698C618.205 97.3386 621.989 98.3722 626.263 98.3722C629.652 98.3722 632.945 98.0119 636.139 97.293C639.382 96.5284 643.116 95.2242 647.342 93.382L651.912 104.579C646.85 106.827 642.009 108.4 637.391 109.3C632.821 110.196 628.449 110.646 624.272 110.646Z" fill="black"/>
<path d="M559.859 109.026V6.77917C569.669 6.77917 577.622 14.7315 577.622 24.5423V109.026H559.859Z" fill="black"/>
<path d="M528.686 109.026V6.77917C538.495 6.77917 546.447 14.7315 546.447 24.5406V109.026H528.686Z" fill="black"/>
<path d="M476.705 110.646C471.84 110.646 467.641 109.746 464.101 107.947C460.564 106.104 457.838 103.676 455.921 100.664C454.054 97.6052 453.12 94.3007 453.12 90.7484C453.12 86.7022 454.349 83.083 456.806 79.8894C459.312 76.6517 463.513 73.9765 469.41 71.8637C475.304 69.7509 483.387 68.2658 493.656 67.4132C493.363 69.1217 492.846 70.8073 492.109 72.4718C491.372 74.1363 490.291 75.5742 488.866 76.7887C487.491 77.9576 485.673 78.7222 483.412 79.0824C480.218 79.5324 477.712 80.2741 475.895 81.3077C474.077 82.3413 472.774 83.5558 471.989 84.9497C471.252 86.3435 470.883 87.8042 470.883 89.3334C470.883 91.8521 471.84 93.9877 473.757 95.7402C475.723 97.4944 478.205 98.3714 481.201 98.3714C484.248 98.3714 487.293 97.54 490.34 95.8755C493.436 94.1671 496.31 91.8065 498.964 88.7938V66.5361C498.964 61.5899 497.539 57.6334 494.688 54.6663C491.887 51.6536 487.613 50.1473 481.865 50.1473C479.359 50.1473 476.729 50.3951 473.979 50.8891C471.276 51.339 468.156 52.1476 464.618 53.3165C462.091 47.2014 465.856 40.3153 472.367 39.1366C472.734 39.0698 473.097 39.0079 473.462 38.9508C477.737 38.2319 481.57 37.8716 484.96 37.8716C495.032 37.8716 502.795 40.3903 508.25 45.4261C513.754 50.4163 516.504 57.5893 516.504 66.9404V89.6692C516.504 93.2672 516.701 96.6841 517.094 99.9202C517.487 103.112 518.077 106.148 518.863 109.025H505.671C504.344 108.306 503.263 107.339 502.427 106.125C501.592 104.91 500.88 103.606 500.29 102.212L499.996 99.6495L498.226 102.01C494.1 105.562 490.389 107.9 487.098 109.025C483.855 110.106 480.391 110.646 476.705 110.646Z" fill="black"/>
<path d="M338.31 109.027L308.533 10.9613H312.661C320.889 10.9613 328.103 16.4568 330.287 24.3896L347.226 85.8937L348.404 93.0423L350.026 85.8937L370.588 12.3111H373.904C383.787 12.3111 392.448 18.9169 395.065 28.4456L410.833 85.8937L412.306 93.0423L413.485 86.1627L434.122 10.9613C442.895 10.9613 449.179 19.4255 446.642 27.8229L422.109 109.027H402.945L381.646 35.2421L380.393 29.6439L379.214 35.04L357.913 109.027H338.31Z" fill="black"/>
<path d="M241.914 109.027L177.793 10.9613H188.153C194.514 10.9613 200.396 14.3441 203.595 19.8445L217.961 44.5491L219.361 48.3932L220.54 44.5491L240.145 10.9613H260.412L228.647 58.9148L262.107 109.027H241.914ZM176.098 109.027L205.357 64.9174C206.585 66.4009 207.814 68.3572 209.042 70.7846C210.271 73.168 211.056 75.7079 211.4 78.406C211.744 81.104 211.179 83.6668 209.705 86.0942L195.776 109.025H176.098V109.027Z" fill="black"/>
<path fill-rule="evenodd" clip-rule="evenodd" d="M143.954 15.8422C137.807 12.5877 133.14 6.8707 131.298 0C130.729 2.10082 130.437 4.30495 130.437 6.57796C130.437 8.3516 130.626 10.0736 130.97 11.7439C130.97 11.7439 130.97 11.7439 130.97 11.7611C130.97 11.7783 130.988 11.8128 130.988 11.83C131.453 14.0686 132.21 16.1866 133.226 18.1497C131.057 16.5482 129.128 14.6368 127.509 12.4844C125.34 29.3081 131.453 46.8206 142.628 58.3579C157.213 75.3366 143.765 104.145 121.035 103.388C88.868 103.663 83.3577 56.2915 114.216 48.8526L114.198 48.7665C122.429 46.0974 126.287 40.7421 126.958 33.7853C115.077 43.4111 96.307 31.4778 100.199 16.531C55.5993 38.4863 72.1648 109.707 122.722 108.829C144.746 108.829 163.378 94.2612 169.491 74.2346C176.792 50.8845 164.98 26.0019 143.954 15.8422Z" fill="black"/>
<path d="M-3.05176e-05 109.027V40.1263C-3.05176e-05 24.0195 13.0582 10.9613 29.165 10.9613H63.0153C63.0153 20.4412 55.3303 28.1277 45.8488 28.1277H35.5164C26.0365 28.1277 18.35 35.8127 18.35 45.2942V109.028H-3.05176e-05V109.027ZM23.9531 63.5692C24.5921 61.7254 25.4757 59.8816 26.6055 58.0394C27.7842 56.1516 29.284 54.5996 31.1017 53.385C32.9683 52.1705 35.2295 51.5641 37.8819 51.5641H58.0039V63.5692H23.9531Z" fill="black"/>
</svg>
