<?xml version="1.0" encoding="utf-8"?>
<!-- Generator: Adobe Illustrator 25.2.1, SVG Export Plug-In . SVG Version: 6.00 Build 0)  -->
<svg version="1.1" id="图层_1" xmlns="http://www.w3.org/2000/svg" xmlns:xlink="http://www.w3.org/1999/xlink" x="0px" y="0px"
	 viewBox="0 0 1200 400" style="enable-background:new 0 0 1200 400;" xml:space="preserve">
<style type="text/css">
	.st0{fill:#004ECA;}
</style>
<g>
	<path class="st0" d="M209.57,221.94c-4.23,1.39-8.75,2.14-13.45,2.14c-23.81,0-43.12-19.3-43.12-43.12c0-2.73,0.26-5.41,0.74-8
		l0.08-0.38c-29.84,19.08-49.63,52.5-49.63,90.55c0,32,13.99,60.73,36.19,80.4l-0.39-0.67c-3.07-7.87-4.88-17.08-4.88-26.03
		c0-32.02,21.09-58.4,50.44-66.72C198.18,246.17,207.58,235.32,209.57,221.94L209.57,221.94z M157.07,225.7
		c-4.94,0-8.95-4.01-8.95-8.95c0-0.83,0-2.44,0-2.44c5.04,2.12,8.85,6.59,11.39,11.39C158.58,226.02,157.88,225.7,157.07,225.7z"/>
	<path class="st0" d="M323.18,57.17c-8.81,8.7-20.95,13.94-34.32,13.94c-6.45,0-12.26-0.98-17.9-3.25l0,0
		c-16.93-7.33-34.89-11.39-54.51-11.39c-76.84,0-139.12,62.29-139.12,139.12c0,26.41,7.36,51.11,20.14,72.14l-0.1-0.45
		c-1.4-6.32-2.14-12.89-2.14-19.62c0-49.87,40.43-90.31,90.31-90.31c8.47,0,17.45,1.07,25.22,3.25c7.83,2.22,15.06,3.25,23.59,3.25
		c49.87,0,90.31-40.43,90.31-90.31C324.67,68.01,324.14,62.45,323.18,57.17"/>
</g>
<g>
	<path class="st0" d="M445.61,195.61h-49.86v27.45h41.42v21.11h-41.42v48.24H370.9V173.02h74.71V195.61z"/>
	<path class="st0" d="M537.55,251.47c0,24.69-18.52,42.56-43.53,42.56s-43.2-17.86-43.2-42.56c0-24.68,18.19-43.04,43.2-43.04
		C519.03,208.43,537.55,226.79,537.55,251.47z M474.85,251.47c0,12.51,8.13,21.77,19.17,21.77c11.21,0,19.33-9.26,19.33-21.77
		c0-12.66-8.12-22.25-19.33-22.25C482.97,229.22,474.85,238.81,474.85,251.47z"/>
	<path class="st0" d="M601.05,250.83l26.15,41.58h-28.1l-14.62-24.36l-14.46,24.36h-28.1l26.31-41.58l-25.18-40.76h27.78
		l13.65,24.04l13.96-24.04h27.62L601.05,250.83z"/>
	<path class="st0" d="M736.33,294.19h-0.65l-27.77-65.44l-27.78,65.44h-0.65l-48.57-121.17h27.29l23.23,63.99l26.15-63.99h0.65
		l26.16,63.99l23.22-63.99h27.29L736.33,294.19z"/>
	<path class="st0" d="M837.84,219.31l1.31-9.25h21.44v82.34h-21.44l-1.31-9.1c-4.22,5.86-12.18,10.72-24.04,10.72
		c-21.92,0-36.71-18.03-36.71-42.71c0-24.69,14.79-42.89,36.71-42.89C825.67,208.43,833.62,213.31,837.84,219.31z M801.14,251.32
		c0,13.48,7.63,21.92,18.51,21.92c8.28,0,13.32-4.38,16.9-10.24v-23.39c-3.57-5.84-8.61-10.4-16.9-10.4
		C808.77,229.22,801.14,237.68,801.14,251.32z"/>
	<path class="st0" d="M907.85,292.41h-23.88V168.96h23.88V292.41z"/>
	<path class="st0" d="M955.28,292.41H931.4V168.96h23.88V292.41z"/>
	<path class="st0" d="M1052.08,250.18v7.63h-55.71c0.49,10.57,6.98,16.57,18.84,16.57c8.13,0,14.46-3.57,18.03-8.44l16.4,13.32
		c-8.6,9.91-19.48,14.78-34.92,14.78c-25.83,0-42.4-17.86-42.4-42.56c0-24.68,16.9-43.04,41.42-43.04
		C1039.57,208.43,1052.08,227.6,1052.08,250.18z M996.37,242.7h32.16c-0.33-9.25-5.86-16.24-15.59-16.24
		C1003.19,226.46,996.86,233.28,996.37,242.7z"/>
	<path class="st0" d="M1099.01,210.07h23.55v20.13h-23.55v31.19c0,7.15,4.54,11.21,11.36,11.21c4.88,0,8.28-1.13,10.57-2.44l6,18.84
		c-4.38,2.6-10.4,5.04-18.84,5.04c-20.14,0-32.97-11.53-32.97-32.32V230.2h-14.79v-20.13h14.79v-27.29h23.88V210.07z"/>
</g>
</svg>
