<?xml version="1.0" encoding="utf-8"?>
<!-- Generator: Adobe Illustrator 25.2.1, SVG Export Plug-In . SVG Version: 6.00 Build 0)  -->
<svg version="1.1" id="图层_1" xmlns="http://www.w3.org/2000/svg" xmlns:xlink="http://www.w3.org/1999/xlink" x="0px" y="0px"
	 viewBox="0 0 1200 360" style="enable-background:new 0 0 1200 360;" xml:space="preserve">
<style type="text/css">
	.st0{fill-rule:evenodd;clip-rule:evenodd;fill:#FFFFFF;}
	.st1{fill-rule:evenodd;clip-rule:evenodd;fill:#F9F9F9;}
</style>
<path class="st0" d="M162.8,202.2c0.7,0.2,1.5,0.4,2.2,0.5c0,0-3.1,1.2-9.6-1c0,0-4.8-2-8.5-1.6c-4.2,0.4-7.1,5.9-7.1,5.9
	c0.8-0.5,1.7-0.8,2.6-1c2.9-0.6,1.9-0.1,1.9-0.1s-5.5,2.3-5.9,4.4c-0.1,0.5,1.5-0.9,5.5-0.8c5,0.2,9.4,3.1,11.2,3.5
	c3.7,1,8.9,1.2,13.8-2.6c0,0,4.5-2.8,5.8-8c0.4-1.4,0.6-2.9,0.6-4.4c0-1.3-0.1-2.6-0.4-3.9C175,193.1,172.4,199.1,162.8,202.2z"/>
<path class="st0" d="M257.6,258.9c9.7-12.2,15-27.3,15-42.9c0-15.6-5.3-30.7-15-42.9l62.3-6.9c0,0,6.5,17.8,8.2,27.3
	c0.2,1.2,0.6,3.7,0.6,3.7s-9.7,23.5-24.5,36.4C284.3,250.8,257.6,258.9,257.6,258.9z M110.1,258l-23.9,4.4
	c-7.6-19.2-10.3-39.9-8.1-60.4c2.3-20.5,9.5-40.1,21.2-57.2c0.5-0.7,1.5-2.2,1.5-2.2l26.4,74.3L110.1,258z"/>
<path class="st1" d="M196.5,105.6c0.1-0.1,0.1-0.1,0.2-0.2c0.6-0.7,15.5-16.6-2.2-43.6c-13-19.9-46.3-19.3-59.8-29.7
	c1,8,8.8,15.2,8,26.1c-0.3,3.6-1,7.2-2,10.6c-1.6,6.2-3.1,12.2-0.9,23.8c1.7,9.1,5.9,15.7,12.3,19.7c7.3,4.5,17.5,5.5,27.9,2.7
	C187,113.1,193.1,109.6,196.5,105.6L196.5,105.6z"/>
<path class="st1" d="M218.6,94c3.8-6.6,4.5-14.2,2.2-22.7c-3.3-11.9-9.5-19.7-14.5-25.9c-1.6-2-3.1-3.8-4.2-5.6
	c-4.8-7-6.8-15.5-5.8-23.9c-6.1,4.3-17.7,12.6-25.1,21.3c10.8,5.2,19.2,10.8,25.8,20.9c11.3,17.3,11.1,31.2,9,39.9
	c-0.6,2.4,4,4.5,3.1,6.3C212.9,101.6,216.2,98.1,218.6,94z"/>
<path class="st1" d="M355.2,158c0,0-5,27.8-31.3,31c0,0-95.4-0.6-102.4,86.1l-1.6,24.4l-114.5-33.4c0,0,10.8-36.8,34.4-66.4
	c0,0,40.1-56.6,154.3-41.7c0,0,13.3,2.7,32.1,4.4C341.9,164,355.2,158,355.2,158z"/>
<path class="st0" d="M287,120.2c0,0-21.1-24.2-70.4-29.7c0,0-21.9-0.1-56.8-22.1c-17.9-11.3-25.1-36.3-25.1-36.3
	c-12.8,17.3-19.2,42.7-21.5,54.4c-0.5,2-1.1,3.9-1.5,6c-6.8-4.3-6.2-7.2-6.1-7.6c-0.3,0.8-11.8,34.5-9.8,59.2
	c1.1,13.9,8.6,26.9,8.6,26.9c-3.3,2.1-7.6-1.3-7.6-1.3c3.7,21.3,8,31.2,17.2,43.9c2,2.7,0,1.4-8.7,17.7
	C97.7,245.4,91.1,265,91.1,265l20.6,1.1c0,0,17-49.1,36-68c24.7-22.6,57.4-39.9,115-36.7c0,0,25.6,3.1,38.3,4.3
	c0,0,41.9,3.3,53.5-7.7C354.6,158,322.4,158.4,287,120.2z M234.6,133.1c0,0,16.8-13.1,39.4-9.9l16.2,21.6
	C290.2,144.8,265.4,131.9,234.6,133.1z"/>
<path class="st0" d="M227.6,263.3c0,0,8.1,5.6,20.9,2.6c0,0-20.7,12-64.3-4.5c0,0-45-20.1-76.6-15.5c-20.3,2.9-38.3,19.1-49.2,31.4
	c-13.2,14.9-11.5,7.9,21.5,3.8c7.9-1,3.4,1.3,3.4,1.3s-44.1,18.5-47.1,34.9c-0.7,4.1,11.6-7.5,44.3-6.5c40,1.3,74.9,24.5,89.2,28.4
	c29.3,7.8,71.4,9.6,110-20.6c0,0,35.6-22.3,46.6-63.6c2.9-11.5,4.6-23.2,5-35c0.6-15.4-4.1-31.6-4.1-31.6S301.1,246.1,227.6,263.3z"
	/>
<path class="st0" d="M1154.5,239.5h9.4v22h-13.4c-9.7,0-17.2-2.1-22.5-6.3c-5.3-4.2-8-11.4-8-21.6v-35.2h-8v-21.5h8v-20.6h26.4v20.6
	h17.3v21.5h-17.3v35.2C1146.5,237.6,1149.2,239.5,1154.5,239.5z M1047.3,227.7c0.5,3.7,2.2,6.8,5.1,9.2c2.9,2.4,6,3.6,9.3,3.6
	s5.8-0.3,7.5-1c1.7-0.7,2.9-1.3,3.6-2c0.8-0.7,1.8-1.7,3-3.3h28.6c-2.5,8.5-7.4,15.3-14.8,20.5c-7.4,5.2-16.2,7.8-26.4,7.8
	c-12.6,0-22.8-4-30.9-11.9c-8-7.9-12-18.5-12-31.6c0-13.1,4-23.6,12-31.4c8-7.8,18.3-11.7,31-11.7c12.7,0,23.2,3.8,31.5,11.5
	c8.3,7.7,12.5,18.3,12.5,32c0,2.9-0.2,5.7-0.6,8.2L1047.3,227.7L1047.3,227.7z M1074.5,201.9c-3.1-2.5-6.7-3.7-11-3.7
	c-4.2,0-7.8,1.2-10.7,3.7c-2.9,2.5-4.7,5.7-5.4,9.6h32.3C1079.3,207.6,1077.5,204.4,1074.5,201.9z M983,149.4h26.4v112.2H983V149.4z
	 M939.4,149.4h26.4v112.2h-26.4V149.4z M896.1,249.3c-6.4,8.9-14.9,13.3-25.6,13.3c-10.7,0-19.9-4-27.5-12.1
	c-7.6-8.1-11.4-18.4-11.4-31.1c0-12.6,3.8-23,11.4-31.2c7.6-8.1,16.9-12.2,27.9-12.2c11,0,19.4,4,25.2,12v-11.1h26.4v84.6h-26.4
	V249.3z M890.4,203.9c-3.8-3.6-8.2-5.4-13.1-5.4c-4.9,0-9.3,1.8-13.1,5.5c-3.8,3.6-5.7,8.8-5.7,15.5s1.9,11.8,5.7,15.4
	c3.8,3.6,8.2,5.4,13.1,5.4c4.9,0,9.3-1.8,13.1-5.5c3.8-3.6,5.7-8.8,5.7-15.5C896.1,212.6,894.2,207.4,890.4,203.9z M770.7,261.5
	l-19-67.5l-18.8,67.5h-30.3l-30.7-106.4h28.3l18.8,76.6l19.3-76.6h30l18.5,75.3l16.1-75.3h28.4L801,261.5L770.7,261.5L770.7,261.5z
	 M644.4,218.1l27.8,43.7h-29.2l-26.6-40.9l0-0.1l-28-43.7h29.7l14.1,22l13.9-22h26.1L644.4,218.1z M567.9,252.8L553.7,231
	c1.6-3.1,2.3-7,2.3-11.6c0-6.9-1.8-12.1-5.4-15.7c-3.6-3.6-7.9-5.4-12.8-5.4c-1.7,0-3.4,0.2-5,0.7L520,179.2
	c5.5-2.1,11.5-3.1,18-3.1c12.8,0,23.5,3.9,32.1,11.8c8.6,7.8,12.9,18.3,12.9,31.3c0,13.1-4.3,23.6-12.8,31.6
	C569.4,251.5,568.6,252.2,567.9,252.8z M519.7,219.4c0,6.9,1.8,12.1,5.5,15.8c3.7,3.6,8,5.5,12.9,5.5c3,0,5.6-0.7,8.1-2l12.8,19.7
	c-6.2,2.9-13.2,4.4-20.9,4.4c-12.8,0-23.5-4-32.2-12c-8.7-8-13.1-18.5-13.1-31.6c0-13.1,4.3-23.5,13-31.3c1.5-1.4,3.2-2.7,4.8-3.8
	l13.5,20.7C521.2,208.3,519.7,213.2,519.7,219.4z M438.6,155.2h48.5V175h-35.7L438.6,155.2z M442.9,197.9H476v19.7h-33.1v44.2h-26.4
	V155.2h9.6l16.8,25.8L442.9,197.9L442.9,197.9z M622.5,249.3l-7.9,12.4h-26.1l21.5-31.5L622.5,249.3z"/>
</svg>
